<svg xmlns="http://www.w3.org/2000/svg" xmlns:xlink="http://www.w3.org/1999/xlink" width="629.158" height="1000" viewBox="-7.217 -4.129 629.158 1000"><path d="M-7.217-4.129h629.158v1000H-7.217z" fill="#239f40"/><path d="M-7.217 495.871h629.158v500H-7.217z" fill="#da0000"/><path d="M-7.217 329.146h629.158V662.51H-7.217z" fill="#fff"/><g transform="translate(-22.753 274.794) scale(7.76739)"><g id="c" fill="none" stroke="#fff"><path id="b" d="M3 .5h13M3.5 5V2.5h4v2h4v-2H9m-4 2h1m10 0h-2.5v-2h4m0-2.5v4.5h4V0m-2 0v4.5"/><path id="a" d="M3 7h9m1 0h9" stroke-width="2"/><use xlink:href="#a" y="42.913" width="100%" height="100%"/><use xlink:href="#b" y="51.913" width="100%" height="100%"/></g><use xlink:href="#c" x="20" width="100%" height="100%"/><use xlink:href="#c" x="40" width="100%" height="100%"/><use xlink:href="#c" x="60" width="100%" height="100%"/></g><g transform="translate(307.362 495.871) scale(121.08528)" fill="#da0000"><g id="d"><path d="M-.548.836A.912.912 0 0 0 .329-.722 1 1 0 0 1-.548.836"/><path d="M.618.661A.764.764 0 0 0 .422-.74 1 1 0 0 1 .618.661M0 1l-.05-1L0-.787a.31.31 0 0 0 .118.099V-.1l-.04.993zM-.02-.85L0-.831a.144.144 0 0 0 .252-.137A.136.136 0 0 1 0-.925"/></g><use xlink:href="#d" transform="scale(-1 1)" width="100%" height="100%"/></g></svg>